<?xml version="1.0" encoding="UTF-8"?>
<svg id="monogram" xmlns="http://www.w3.org/2000/svg" viewBox="0 0 303.3 275.17">
  <defs>
    <style>
      .cls-1 {
        fill: #226a14;
      }
    </style>
  </defs>
  <path class="cls-1" d="M51.31,216.11c.5,2.34,1.83,4.16,4.01,5.46,2.17,1.3,5.44,2.47,9.8,3.51l-.03.16H0l.03-.16c4.99-1.14,8.89-2.39,11.69-3.74,2.8-1.35,4.94-3.3,6.41-5.85,1.47-2.55,2.65-6.06,3.54-10.53L58.36,20.28c.91-4.58,1.13-8.11.66-10.61-.47-2.5-1.83-4.45-4.08-5.85-2.26-1.4-5.66-2.63-10.22-3.67l.03-.16h65.09l-.03.16c-4.77,1.04-8.5,2.21-11.19,3.51-2.69,1.3-4.75,3.12-6.18,5.46-1.43,2.34-2.57,5.64-3.41,9.9l-37.18,187.18c-.85,4.27-1.02,7.57-.52,9.9ZM88.29,105.43l24.98-21.55,45.81-43.95c9.64-9.25,16.61-16.64,20.9-22.15,4.29-5.51,6-9.64,5.12-12.4-.87-2.75-4.28-4.5-10.22-5.23l.03-.16h48.51l-.03.16c-5.24,1.35-10.74,3.64-16.49,6.86-5.76,3.22-12.29,7.62-19.57,13.18-7.29,5.56-15.89,12.61-25.79,21.14-7.96,6.86-16.26,14.19-24.9,21.99-8.65,7.8-16.41,14.72-23.28,20.75l41.19,98.11c4.28,10.09,7.97,18.04,11.07,23.86,3.1,5.83,6.05,10.14,8.83,12.95,2.79,2.81,5.78,4.84,8.98,6.08l-.03.16h-45.93l-49.18-119.81Z"/>
  <path class="cls-1" d="M84.57,159.04h164.21l-.28,1.4H84.29l.28-1.4ZM244.29,265.42c.46,2.55,1.82,4.5,4.08,5.85,2.27,1.35,5.67,2.6,10.21,3.74l-.03.16h-65.09l.03-.16c4.77-1.04,8.52-2.21,11.27-3.51,2.74-1.3,4.8-3.12,6.18-5.46,1.38-2.34,2.49-5.64,3.34-9.9l37.18-187.18c.85-4.26,1.05-7.57.6-9.9-.45-2.34-1.78-4.16-4.01-5.46-2.23-1.3-5.52-2.47-9.87-3.51l.03-.16h65.09l-.03.16c-4.97,1.04-8.86,2.26-11.68,3.67-2.81,1.4-4.95,3.35-6.41,5.85-1.46,2.5-2.64,6.03-3.55,10.61l-36.69,184.68c-.89,4.47-1.1,7.98-.65,10.53Z"/>
</svg>